<svg width="12" height="12" viewBox="0 0 12 12" fill="none" xmlns="http://www.w3.org/2000/svg">
<path d="M6 7.33333C5.63333 7.33333 5.31956 7.20267 5.05867 6.94133C4.79733 6.68044 4.66667 6.36667 4.66667 6C4.66667 5.63333 4.79733 5.31933 5.05867 5.058C5.31956 4.79711 5.63333 4.66667 6 4.66667C6.36667 4.66667 6.68067 4.79711 6.942 5.058C7.20289 5.31933 7.33333 5.63333 7.33333 6C7.33333 6.36667 7.20289 6.68044 6.942 6.94133C6.68067 7.20267 6.36667 7.33333 6 7.33333ZM6 12C4.61111 12 3.38333 11.5833 2.31667 10.75C1.25 9.91667 0.544444 8.84445 0.2 7.53333C0.144444 7.3 0.180667 7.09711 0.308667 6.92467C0.436222 6.75267 0.611111 6.66667 0.833333 6.66667C0.988889 6.66667 1.13067 6.72222 1.25867 6.83333C1.38622 6.94444 1.47222 7.07778 1.51667 7.23333C1.77222 8.24444 2.31667 9.06933 3.15 9.708C3.98333 10.3471 4.93333 10.6667 6 10.6667C7.3 10.6667 8.40267 10.2138 9.308 9.308C10.2138 8.40267 10.6667 7.3 10.6667 6C10.6667 4.7 10.2138 3.59711 9.308 2.69133C8.40267 1.786 7.3 1.33333 6 1.33333C5.23333 1.33333 4.51667 1.51111 3.85 1.86667C3.18333 2.22222 2.62222 2.71111 2.16667 3.33333H3.33333C3.52222 3.33333 3.68067 3.39711 3.80867 3.52467C3.93622 3.65267 4 3.81111 4 4C4 4.18889 3.93622 4.34711 3.80867 4.47467C3.68067 4.60267 3.52222 4.66667 3.33333 4.66667H0.666667C0.477778 4.66667 0.319556 4.60267 0.192 4.47467C0.0640001 4.34711 0 4.18889 0 4V1.33333C0 1.14444 0.0640001 0.986 0.192 0.858C0.319556 0.730445 0.477778 0.666667 0.666667 0.666667C0.855556 0.666667 1.014 0.730445 1.142 0.858C1.26956 0.986 1.33333 1.14444 1.33333 1.33333V2.23333C1.9 1.52222 2.59178 0.972222 3.40867 0.583333C4.22511 0.194444 5.08889 0 6 0C6.83333 0 7.614 0.158222 8.342 0.474667C9.06956 0.791556 9.70289 1.21933 10.242 1.758C10.7807 2.29711 11.2084 2.93044 11.5253 3.658C11.8418 4.386 12 5.16667 12 6C12 6.83333 11.8418 7.61378 11.5253 8.34133C11.2084 9.06933 10.7807 9.70267 10.242 10.2413C9.70289 10.7804 9.06956 11.2084 8.342 11.5253C7.614 11.8418 6.83333 12 6 12Z" fill="#404040"/>
</svg>
