<svg width="25" height="16" viewBox="0 0 25 16" fill="none" xmlns="http://www.w3.org/2000/svg">
<path d="M7.97016 2C7.85775 2.00016 7.74682 2.02559 7.64556 2.0744C7.5443 2.12321 7.45531 2.19416 7.38516 2.282L2.81016 8H9.50016C9.69907 8 9.88984 8.07902 10.0305 8.21967C10.1711 8.36032 10.2502 8.55109 10.2502 8.75C10.2502 9.34674 10.4872 9.91903 10.9092 10.341C11.3311 10.7629 11.9034 11 12.5002 11C13.0969 11 13.6692 10.7629 14.0912 10.341C14.5131 9.91903 14.7502 9.34674 14.7502 8.75C14.7502 8.55109 14.8292 8.36032 14.9698 8.21967C15.1105 8.07902 15.3012 8 15.5002 8H22.1902L17.6152 2.282C17.545 2.19416 17.456 2.12321 17.3548 2.0744C17.2535 2.02559 17.1426 2.00016 17.0302 2H7.97016ZM6.21516 1.3445C6.42574 1.08125 6.69278 0.868692 6.99655 0.72252C7.30032 0.576347 7.63305 0.500301 7.97016 0.5H17.0302C17.3673 0.500301 17.7 0.576347 18.0038 0.72252C18.3075 0.868692 18.5746 1.08125 18.7852 1.3445L24.3352 8.282C24.3978 8.36016 24.4441 8.45006 24.4714 8.54642C24.4987 8.64277 24.5065 8.74361 24.4942 8.843L23.9092 13.529C23.8411 14.0733 23.5766 14.5741 23.1653 14.937C22.754 15.3 22.2242 15.5002 21.6757 15.5H3.32466C2.77609 15.5002 2.24635 15.3 1.83504 14.937C1.42372 14.5741 1.15918 14.0733 1.09116 13.529L0.506161 8.843C0.493867 8.74361 0.501602 8.64277 0.52891 8.54642C0.556218 8.45006 0.602546 8.36016 0.665161 8.282L6.21516 1.3445Z" fill="#5141BF"/>
</svg>
