<svg width="12" height="12" viewBox="0 0 12 12" fill="none" xmlns="http://www.w3.org/2000/svg">
<path d="M1.33333 0H10.6667C11.0203 0 11.3594 0.140476 11.6095 0.390524C11.8595 0.640573 12 0.979711 12 1.33333V10.6667C12 11.0203 11.8595 11.3594 11.6095 11.6095C11.3594 11.8595 11.0203 12 10.6667 12H1.33333C0.979711 12 0.640573 11.8595 0.390524 11.6095C0.140476 11.3594 0 11.0203 0 10.6667V1.33333C0 0.979711 0.140476 0.640573 0.390524 0.390524C0.640573 0.140476 0.979711 0 1.33333 0ZM6 9.33333L6.48 8.89333C8.2 7.33333 9.33333 6.30667 9.33333 5.04667C9.33333 4.02 8.52667 3.21333 7.5 3.21333C6.92 3.21333 6.36667 3.48667 6 3.91333C5.81423 3.69658 5.58431 3.522 5.32562 3.40128C5.06694 3.28056 4.78545 3.21648 4.5 3.21333C3.47333 3.21333 2.66667 4.02 2.66667 5.04667C2.66667 6.30667 3.8 7.33333 5.52 8.89333L6 9.33333Z" fill="#5B5E67"/>
</svg>
