<svg width="24" height="24" viewBox="0 0 24 24" fill="none" xmlns="http://www.w3.org/2000/svg">
<rect width="24" height="24" rx="12" fill="#F2F1FA"/>
<path d="M12 12.9334L8.73337 16.2C8.61114 16.3223 8.45559 16.3834 8.2667 16.3834C8.07781 16.3834 7.92225 16.3223 7.80003 16.2C7.67781 16.0778 7.6167 15.9223 7.6167 15.7334C7.6167 15.5445 7.67781 15.3889 7.80003 15.2667L11.0667 12L7.80003 8.73337C7.67781 8.61114 7.6167 8.45559 7.6167 8.2667C7.6167 8.07781 7.67781 7.92225 7.80003 7.80003C7.92225 7.67781 8.07781 7.6167 8.2667 7.6167C8.45559 7.6167 8.61114 7.67781 8.73337 7.80003L12 11.0667L15.2667 7.80003C15.3889 7.67781 15.5445 7.6167 15.7334 7.6167C15.9223 7.6167 16.0778 7.67781 16.2 7.80003C16.3223 7.92225 16.3834 8.07781 16.3834 8.2667C16.3834 8.45559 16.3223 8.61114 16.2 8.73337L12.9334 12L16.2 15.2667C16.3223 15.3889 16.3834 15.5445 16.3834 15.7334C16.3834 15.9223 16.3223 16.0778 16.2 16.2C16.0778 16.3223 15.9223 16.3834 15.7334 16.3834C15.5445 16.3834 15.3889 16.3223 15.2667 16.2L12 12.9334Z" fill="#5141BF"/>
</svg>
