<svg width="14" height="10" viewBox="0 0 14 10" fill="none" xmlns="http://www.w3.org/2000/svg">
<path d="M13.4733 3.19281L10.8066 0.526139C10.7444 0.46398 10.6706 0.414673 10.5894 0.381033C10.5082 0.347393 10.4212 0.330078 10.3333 0.330078C10.1557 0.330078 9.98547 0.400603 9.85993 0.526139C9.73439 0.651675 9.66387 0.821938 9.66387 0.999473C9.66387 1.17701 9.73439 1.34727 9.85993 1.47281L11.3933 2.99947H3.6666C3.48979 2.99947 3.32022 3.06971 3.19519 3.19474C3.07017 3.31976 2.99993 3.48933 2.99993 3.66614C2.99993 3.84295 3.07017 4.01252 3.19519 4.13754C3.32022 4.26257 3.48979 4.33281 3.6666 4.33281H12.9999C13.1315 4.33215 13.26 4.29255 13.3692 4.21899C13.4783 4.14544 13.5632 4.04122 13.6133 3.91947C13.6643 3.79807 13.6783 3.66426 13.6533 3.53493C13.6284 3.4056 13.5658 3.28656 13.4733 3.19281ZM10.3333 5.66614H0.99993C0.868313 5.6668 0.739836 5.7064 0.630689 5.77995C0.521542 5.85351 0.43661 5.95773 0.386597 6.07947C0.335544 6.20088 0.321595 6.33469 0.346512 6.46402C0.371428 6.59334 0.434092 6.71239 0.526597 6.80614L3.19326 9.47281C3.25524 9.53529 3.32897 9.58489 3.41021 9.61873C3.49145 9.65258 3.57859 9.67 3.6666 9.67C3.7546 9.67 3.84174 9.65258 3.92298 9.61873C4.00422 9.58489 4.07795 9.53529 4.13993 9.47281C4.20242 9.41083 4.25201 9.3371 4.28586 9.25586C4.3197 9.17462 4.33713 9.08748 4.33713 8.99947C4.33713 8.91146 4.3197 8.82433 4.28586 8.74309C4.25201 8.66185 4.20242 8.58811 4.13993 8.52614L2.6066 6.99947H10.3333C10.5101 6.99947 10.6796 6.92923 10.8047 6.80421C10.9297 6.67919 10.9999 6.50962 10.9999 6.33281C10.9999 6.15599 10.9297 5.98643 10.8047 5.8614C10.6796 5.73638 10.5101 5.66614 10.3333 5.66614Z" fill="#5B5E67"/>
</svg>
