<svg width="16" height="16" viewBox="0 0 16 16" fill="none" xmlns="http://www.w3.org/2000/svg">
<path d="M1.66667 13.8327H2.83333L10.0208 6.64518L8.85417 5.47852L1.66667 12.666V13.8327ZM13.5833 5.43685L10.0417 1.93685L11.2083 0.770182C11.5278 0.450738 11.9203 0.291016 12.3858 0.291016C12.8508 0.291016 13.2431 0.450738 13.5625 0.770182L14.7292 1.93685C15.0486 2.25629 15.2153 2.64185 15.2292 3.09352C15.2431 3.54463 15.0903 3.9299 14.7708 4.24935L13.5833 5.43685ZM0.833333 15.4993C0.597222 15.4993 0.399445 15.4193 0.24 15.2593C0.0800001 15.0999 0 14.9021 0 14.666V12.3118C0 12.2007 0.0208334 12.0932 0.0625 11.9893C0.104167 11.8849 0.166667 11.791 0.25 11.7077L8.83333 3.12435L12.375 6.66602L3.79167 15.2493C3.70833 15.3327 3.61472 15.3952 3.51083 15.4368C3.40639 15.4785 3.29861 15.4993 3.1875 15.4993H0.833333ZM9.4375 6.06185L8.85417 5.47852L10.0208 6.64518L9.4375 6.06185Z" fill="#5B5E67"/>
</svg>
