<svg width="14" height="14" viewBox="0 0 14 14" fill="none" xmlns="http://www.w3.org/2000/svg">
<path d="M7.00016 10.334C7.18905 10.334 7.3475 10.27 7.4755 10.142C7.60305 10.0144 7.66683 9.85621 7.66683 9.66732V6.98398C7.66683 6.7951 7.60305 6.63954 7.4755 6.51732C7.3475 6.3951 7.18905 6.33398 7.00016 6.33398C6.81127 6.33398 6.65305 6.39776 6.5255 6.52532C6.3975 6.65332 6.3335 6.81176 6.3335 7.00065V9.68398C6.3335 9.87287 6.3975 10.0284 6.5255 10.1507C6.65305 10.2729 6.81127 10.334 7.00016 10.334ZM7.00016 5.00065C7.18905 5.00065 7.3475 4.93665 7.4755 4.80865C7.60305 4.6811 7.66683 4.52287 7.66683 4.33398C7.66683 4.1451 7.60305 3.98665 7.4755 3.85865C7.3475 3.7311 7.18905 3.66732 7.00016 3.66732C6.81127 3.66732 6.65305 3.7311 6.5255 3.85865C6.3975 3.98665 6.3335 4.1451 6.3335 4.33398C6.3335 4.52287 6.3975 4.6811 6.5255 4.80865C6.65305 4.93665 6.81127 5.00065 7.00016 5.00065ZM7.00016 13.6673C6.07794 13.6673 5.21127 13.4922 4.40016 13.142C3.58905 12.7922 2.8835 12.3173 2.2835 11.7173C1.6835 11.1173 1.20861 10.4118 0.858829 9.60065C0.508607 8.78954 0.333496 7.92287 0.333496 7.00065C0.333496 6.07843 0.508607 5.21176 0.858829 4.40065C1.20861 3.58954 1.6835 2.88398 2.2835 2.28398C2.8835 1.68398 3.58905 1.20887 4.40016 0.858651C5.21127 0.508873 6.07794 0.333984 7.00016 0.333984C7.92239 0.333984 8.78905 0.508873 9.60016 0.858651C10.4113 1.20887 11.1168 1.68398 11.7168 2.28398C12.3168 2.88398 12.7917 3.58954 13.1415 4.40065C13.4917 5.21176 13.6668 6.07843 13.6668 7.00065C13.6668 7.92287 13.4917 8.78954 13.1415 9.60065C12.7917 10.4118 12.3168 11.1173 11.7168 11.7173C11.1168 12.3173 10.4113 12.7922 9.60016 13.142C8.78905 13.4922 7.92239 13.6673 7.00016 13.6673ZM7.00016 12.334C8.47794 12.334 9.73639 11.8147 10.7755 10.776C11.8142 9.73687 12.3335 8.47843 12.3335 7.00065C12.3335 5.52287 11.8142 4.26443 10.7755 3.22532C9.73639 2.18665 8.47794 1.66732 7.00016 1.66732C5.52239 1.66732 4.26416 2.18665 3.2255 3.22532C2.18638 4.26443 1.66683 5.52287 1.66683 7.00065C1.66683 8.47843 2.18638 9.73687 3.2255 10.776C4.26416 11.8147 5.52239 12.334 7.00016 12.334Z" fill="#5B5E67"/>
</svg>
