<svg width="12" height="12" viewBox="0 0 12 12" fill="none" xmlns="http://www.w3.org/2000/svg">
<path d="M11.855 0.145617C11.7875 0.0784538 11.7023 0.0319524 11.6093 0.0115805C11.5163 -0.00879147 11.4194 -0.00218705 11.33 0.0306172L0.33 4.03062C0.235134 4.0666 0.15346 4.13059 0.0958259 4.21409C0.0381915 4.2976 0.00732422 4.39666 0.00732422 4.49812C0.00732422 4.59958 0.0381915 4.69864 0.0958259 4.78214C0.15346 4.86564 0.235134 4.92963 0.33 4.96562L5.13 6.88562L7.05 11.6856C7.08608 11.7763 7.14791 11.8545 7.22787 11.9104C7.30784 11.9664 7.40243 11.9978 7.5 12.0006C7.60104 11.9985 7.69909 11.9659 7.7812 11.907C7.86332 11.8481 7.92566 11.7657 7.96 11.6706L11.96 0.670617C11.9941 0.582155 12.0023 0.485832 11.9837 0.392879C11.9651 0.299926 11.9205 0.214172 11.855 0.145617ZM7.5 10.1006L6.105 6.60062L8.5 4.20562L7.795 3.50062L5.38 5.91562L1.9 4.50062L10.665 1.33562L7.5 10.1006Z" fill="#5B5E67"/>
</svg>
