<svg width="65" height="64" viewBox="0 0 65 64" fill="none" xmlns="http://www.w3.org/2000/svg">
<path d="M15.9927 21.6963C16.4473 21.6963 16.8834 21.5157 17.2049 21.1942C17.5264 20.8727 17.707 20.4366 17.707 19.982C17.707 19.5273 17.5264 19.0913 17.2049 18.7698C16.8834 18.4483 16.4473 18.2677 15.9927 18.2677C15.538 18.2677 15.102 18.4483 14.7805 18.7698C14.459 19.0913 14.2784 19.5273 14.2784 19.982C14.2784 20.4366 14.459 20.8727 14.7805 21.1942C15.102 21.5157 15.538 21.6963 15.9927 21.6963ZM15.9995 42.3043C15.5449 42.3043 15.1088 42.4849 14.7874 42.8064C14.4659 43.1279 14.2852 43.5639 14.2852 44.0186C14.2852 44.4732 14.4659 44.9093 14.7874 45.2307C15.1088 45.5522 15.5449 45.7328 15.9995 45.7328H27.4281C27.8828 45.7328 28.3188 45.5522 28.6403 45.2307C28.9618 44.9093 29.1424 44.4732 29.1424 44.0186C29.1424 43.5639 28.9618 43.1279 28.6403 42.8064C28.3188 42.4849 27.8828 42.3043 27.4281 42.3043H15.9995ZM14.2852 31.982C14.2852 31.5273 14.4659 31.0913 14.7874 30.7698C15.1088 30.4483 15.5449 30.2677 15.9995 30.2677H27.4281C27.8828 30.2677 28.3188 30.4483 28.6403 30.7698C28.9618 31.0913 29.1424 31.5273 29.1424 31.982C29.1424 32.4366 28.9618 32.8727 28.6403 33.1942C28.3188 33.5157 27.8828 33.6963 27.4281 33.6963H15.9995C15.5449 33.6963 15.1088 33.5157 14.7874 33.1942C14.4659 32.8727 14.2852 32.4366 14.2852 31.982ZM39.595 57.1248H12.5001C10.5299 57.1248 8.64044 56.3422 7.24731 54.9491C5.85418 53.5559 5.07153 51.6665 5.07153 49.6963V13.1431C5.07153 11.4761 5.73378 9.87726 6.91258 8.69846C8.09138 7.51967 9.69017 6.85742 11.3572 6.85742H31.7138C33.3809 6.85742 34.9797 7.51967 36.1585 8.69846C37.3373 9.87726 37.9995 11.4761 37.9995 13.1431V18.2586H54.091C57.0967 18.1328 60.2144 20.1786 60.2144 24.014V39.3397C60.2144 41.0068 59.5522 42.6056 58.3733 43.7844C57.1945 44.9632 55.5958 45.6254 53.9287 45.6254H47.3824L45.8738 52.654C45.1447 56.0391 42.811 57.1248 39.595 57.1248ZM11.3572 10.286C9.7801 10.286 8.5001 11.566 8.5001 13.1431V49.6963C8.5001 51.9066 10.2921 53.6963 12.5001 53.6963H34.9778C34.7021 52.9812 34.564 52.2204 34.571 51.454V13.1431C34.571 11.566 33.291 10.286 31.7138 10.286H11.3572ZM37.9995 51.4517C37.9995 54.1946 41.9447 54.6128 42.5207 51.9317L48.7767 22.8003C48.8635 22.4026 48.9778 22.0323 49.1195 21.6871H37.9995V51.454V51.4517ZM52.1298 23.5203L48.1184 42.1946H53.9287C55.5058 42.1946 56.7858 40.9168 56.7858 39.3374V24.014C56.7858 22.5763 55.6795 21.7534 54.5367 21.6871H54.2212C53.7162 21.7095 53.2338 21.9032 52.8537 22.2365C52.4735 22.5697 52.2182 23.0225 52.1298 23.5203Z" fill="#BCBCBC"/>
</svg>
