<svg width="12" height="12" viewBox="0 0 12 12" fill="none" xmlns="http://www.w3.org/2000/svg">
<path d="M6.00008 8.91699C6.16536 8.91699 6.304 8.86099 6.416 8.74899C6.52761 8.63738 6.58341 8.49894 6.58341 8.33366V5.98574C6.58341 5.82046 6.52761 5.68435 6.416 5.57741C6.304 5.47046 6.16536 5.41699 6.00008 5.41699C5.8348 5.41699 5.69636 5.4728 5.58475 5.58441C5.47275 5.69641 5.41675 5.83505 5.41675 6.00033V8.34824C5.41675 8.51352 5.47275 8.64963 5.58475 8.75658C5.69636 8.86352 5.8348 8.91699 6.00008 8.91699ZM6.00008 4.25033C6.16536 4.25033 6.304 4.19433 6.416 4.08233C6.52761 3.97071 6.58341 3.83227 6.58341 3.66699C6.58341 3.50171 6.52761 3.36308 6.416 3.25108C6.304 3.13946 6.16536 3.08366 6.00008 3.08366C5.8348 3.08366 5.69636 3.13946 5.58475 3.25108C5.47275 3.36308 5.41675 3.50171 5.41675 3.66699C5.41675 3.83227 5.47275 3.97071 5.58475 4.08233C5.69636 4.19433 5.8348 4.25033 6.00008 4.25033ZM6.00008 11.8337C5.19314 11.8337 4.4348 11.6804 3.72508 11.374C3.01536 11.0679 2.398 10.6524 1.873 10.1274C1.348 9.60241 0.93247 8.98505 0.626415 8.27532C0.31997 7.5656 0.166748 6.80727 0.166748 6.00033C0.166748 5.19338 0.31997 4.43505 0.626415 3.72533C0.93247 3.0156 1.348 2.39824 1.873 1.87324C2.398 1.34824 3.01536 0.93252 3.72508 0.626075C4.4348 0.32002 5.19314 0.166992 6.00008 0.166992C6.80703 0.166992 7.56536 0.32002 8.27508 0.626075C8.9848 0.93252 9.60217 1.34824 10.1272 1.87324C10.6522 2.39824 11.0677 3.0156 11.3737 3.72533C11.6802 4.43505 11.8334 5.19338 11.8334 6.00033C11.8334 6.80727 11.6802 7.5656 11.3737 8.27532C11.0677 8.98505 10.6522 9.60241 10.1272 10.1274C9.60217 10.6524 8.9848 11.0679 8.27508 11.374C7.56536 11.6804 6.80703 11.8337 6.00008 11.8337ZM6.00008 10.667C7.29314 10.667 8.39428 10.2126 9.3035 9.30374C10.2123 8.39452 10.6667 7.29338 10.6667 6.00033C10.6667 4.70727 10.2123 3.60613 9.3035 2.69691C8.39428 1.78808 7.29314 1.33366 6.00008 1.33366C4.70703 1.33366 3.60608 1.78808 2.69725 2.69691C1.78803 3.60613 1.33341 4.70727 1.33341 6.00033C1.33341 7.29338 1.78803 8.39452 2.69725 9.30374C3.60608 10.2126 4.70703 10.667 6.00008 10.667Z" fill="#5B5E67"/>
</svg>
