<svg width="18" height="24" viewBox="0 0 18 24" fill="none" xmlns="http://www.w3.org/2000/svg">
<path fill-rule="evenodd" clip-rule="evenodd" d="M2.25 9.00089C2.05109 9.00089 1.86032 9.07991 1.71967 9.22055C1.57902 9.36119 1.5 9.55195 1.5 9.75085V21.7502C1.5 21.9491 1.57902 22.1398 1.71967 22.2805C1.86032 22.4211 2.05109 22.5001 2.25 22.5001H15.75C15.9489 22.5001 16.1397 22.4211 16.2803 22.2805C16.421 22.1398 16.5 21.9491 16.5 21.7502V9.75085C16.5 9.55195 16.421 9.36119 16.2803 9.22055C16.1397 9.07991 15.9489 9.00089 15.75 9.00089H12.75C12.5511 9.00089 12.3603 8.92188 12.2197 8.78123C12.079 8.64059 12 8.44984 12 8.25093C12 8.05203 12.079 7.86128 12.2197 7.72063C12.3603 7.57999 12.5511 7.50098 12.75 7.50098H15.75C16.3467 7.50098 16.919 7.73802 17.341 8.15995C17.7629 8.58188 18 9.15415 18 9.75085V21.7502C18 22.3469 17.7629 22.9191 17.341 23.3411C16.919 23.763 16.3467 24.0001 15.75 24.0001H2.25C1.65326 24.0001 1.08097 23.763 0.65901 23.3411C0.237053 22.9191 0 22.3469 0 21.7502V9.75085C0 9.15415 0.237053 8.58188 0.65901 8.15995C1.08097 7.73802 1.65326 7.50098 2.25 7.50098H5.25C5.44891 7.50098 5.63968 7.57999 5.78033 7.72063C5.92098 7.86128 6 8.05203 6 8.25093C6 8.44984 5.92098 8.64059 5.78033 8.78123C5.63968 8.92188 5.44891 9.00089 5.25 9.00089H2.25Z" fill="#5B5E67"/>
<path fill-rule="evenodd" clip-rule="evenodd" d="M8.46897 0.220328C8.53864 0.150487 8.6214 0.0950762 8.71252 0.0572687C8.80364 0.0194611 8.90132 0 8.99997 0C9.09862 0 9.1963 0.0194611 9.28742 0.0572687C9.37854 0.0950762 9.4613 0.150487 9.53097 0.220328L14.031 4.72008C14.1718 4.8609 14.2509 5.0519 14.2509 5.25105C14.2509 5.4502 14.1718 5.6412 14.031 5.78202C13.8901 5.92284 13.6991 6.00195 13.5 6.00195C13.3008 6.00195 13.1098 5.92284 12.969 5.78202L9.74997 2.5617V15.7505C9.74997 15.9494 9.67095 16.1401 9.5303 16.2808C9.38965 16.4214 9.19888 16.5004 8.99997 16.5004C8.80106 16.5004 8.61029 16.4214 8.46964 16.2808C8.32899 16.1401 8.24997 15.9494 8.24997 15.7505V2.5617L5.03097 5.78202C4.96124 5.85175 4.87846 5.90706 4.78735 5.94479C4.69624 5.98253 4.59859 6.00195 4.49997 6.00195C4.30081 6.00195 4.1098 5.92284 3.96897 5.78202C3.89924 5.71229 3.84392 5.62951 3.80619 5.53841C3.76845 5.4473 3.74902 5.34966 3.74902 5.25105C3.74902 5.0519 3.82814 4.8609 3.96897 4.72008L8.46897 0.220328Z" fill="#5B5E67"/>
</svg>
