<svg width="12" height="14" viewBox="0 0 12 14" fill="none" xmlns="http://www.w3.org/2000/svg">
<path d="M0 13.5335V0.466797C0.0222222 0.466797 0.0528889 0.469463 0.092 0.474797C0.130667 0.480575 0.177778 0.511241 0.233333 0.566797L0.766667 1.10013C0.833333 1.1668 0.911111 1.20013 1 1.20013C1.08889 1.20013 1.16667 1.1668 1.23333 1.10013L1.76667 0.566797C1.83333 0.50013 1.91111 0.466797 2 0.466797C2.08889 0.466797 2.16667 0.50013 2.23333 0.566797L2.76667 1.10013C2.83333 1.1668 2.91111 1.20013 3 1.20013C3.08889 1.20013 3.16667 1.1668 3.23333 1.10013L3.76667 0.566797C3.83333 0.50013 3.91111 0.466797 4 0.466797C4.08889 0.466797 4.16667 0.50013 4.23333 0.566797L4.76667 1.10013C4.83333 1.1668 4.91111 1.20013 5 1.20013C5.08889 1.20013 5.16667 1.1668 5.23333 1.10013L5.76667 0.566797C5.83333 0.50013 5.91111 0.466797 6 0.466797C6.08889 0.466797 6.16667 0.50013 6.23333 0.566797L6.76667 1.10013C6.83333 1.1668 6.91111 1.20013 7 1.20013C7.08889 1.20013 7.16667 1.1668 7.23333 1.10013L7.76667 0.566797C7.83333 0.50013 7.91111 0.466797 8 0.466797C8.08889 0.466797 8.16667 0.50013 8.23333 0.566797L8.76667 1.10013C8.83333 1.1668 8.91111 1.20013 9 1.20013C9.08889 1.20013 9.16667 1.1668 9.23333 1.10013L9.76667 0.566797C9.83333 0.50013 9.91111 0.466797 10 0.466797C10.0889 0.466797 10.1667 0.50013 10.2333 0.566797L10.7667 1.10013C10.8333 1.1668 10.9111 1.20013 11 1.20013C11.0889 1.20013 11.1667 1.1668 11.2333 1.10013L11.7667 0.566797C11.8222 0.511241 11.8696 0.480575 11.9087 0.474797C11.9473 0.469463 11.9778 0.466797 12 0.466797V13.5335C11.9778 13.5335 11.9473 13.5308 11.9087 13.5255C11.8696 13.5197 11.8222 13.489 11.7667 13.4335L11.2333 12.9001C11.1667 12.8335 11.0889 12.8001 11 12.8001C10.9111 12.8001 10.8333 12.8335 10.7667 12.9001L10.2333 13.4335C10.1667 13.5001 10.0889 13.5335 10 13.5335C9.91111 13.5335 9.83333 13.5001 9.76667 13.4335L9.23333 12.9001C9.16667 12.8335 9.08889 12.8001 9 12.8001C8.91111 12.8001 8.83333 12.8335 8.76667 12.9001L8.23333 13.4335C8.16667 13.5001 8.08889 13.5335 8 13.5335C7.91111 13.5335 7.83333 13.5001 7.76667 13.4335L7.23333 12.9001C7.16667 12.8335 7.08889 12.8001 7 12.8001C6.91111 12.8001 6.83333 12.8335 6.76667 12.9001L6.23333 13.4335C6.16667 13.5001 6.08889 13.5335 6 13.5335C5.91111 13.5335 5.83333 13.5001 5.76667 13.4335L5.23333 12.9001C5.16667 12.8335 5.08889 12.8001 5 12.8001C4.91111 12.8001 4.83333 12.8335 4.76667 12.9001L4.23333 13.4335C4.16667 13.5001 4.08889 13.5335 4 13.5335C3.91111 13.5335 3.83333 13.5001 3.76667 13.4335L3.23333 12.9001C3.16667 12.8335 3.08889 12.8001 3 12.8001C2.91111 12.8001 2.83333 12.8335 2.76667 12.9001L2.23333 13.4335C2.16667 13.5001 2.08889 13.5335 2 13.5335C1.91111 13.5335 1.83333 13.5001 1.76667 13.4335L1.23333 12.9001C1.16667 12.8335 1.08889 12.8001 1 12.8001C0.911111 12.8001 0.833333 12.8335 0.766667 12.9001L0.233333 13.4335C0.177778 13.489 0.130667 13.5197 0.092 13.5255C0.0528889 13.5308 0.0222222 13.5335 0 13.5335ZM2.66667 10.3335H9.33333C9.52222 10.3335 9.68044 10.2695 9.808 10.1415C9.936 10.0139 10 9.85569 10 9.6668C10 9.47791 9.936 9.31946 9.808 9.19146C9.68044 9.06391 9.52222 9.00013 9.33333 9.00013H2.66667C2.47778 9.00013 2.31933 9.06391 2.19133 9.19146C2.06378 9.31946 2 9.47791 2 9.6668C2 9.85569 2.06378 10.0139 2.19133 10.1415C2.31933 10.2695 2.47778 10.3335 2.66667 10.3335ZM2.66667 7.6668H9.33333C9.52222 7.6668 9.68044 7.6028 9.808 7.4748C9.936 7.34724 10 7.18902 10 7.00013C10 6.81124 9.936 6.6528 9.808 6.5248C9.68044 6.39724 9.52222 6.33346 9.33333 6.33346H2.66667C2.47778 6.33346 2.31933 6.39724 2.19133 6.5248C2.06378 6.6528 2 6.81124 2 7.00013C2 7.18902 2.06378 7.34724 2.19133 7.4748C2.31933 7.6028 2.47778 7.6668 2.66667 7.6668ZM2.66667 5.00013H9.33333C9.52222 5.00013 9.68044 4.93613 9.808 4.80813C9.936 4.68057 10 4.52235 10 4.33346C10 4.14457 9.936 3.98613 9.808 3.85813C9.68044 3.73057 9.52222 3.6668 9.33333 3.6668H2.66667C2.47778 3.6668 2.31933 3.73057 2.19133 3.85813C2.06378 3.98613 2 4.14457 2 4.33346C2 4.52235 2.06378 4.68057 2.19133 4.80813C2.31933 4.93613 2.47778 5.00013 2.66667 5.00013ZM1.33333 11.7335H10.6667V2.2668H1.33333V11.7335Z" fill="#777A85"/>
</svg>
