<svg width="24" height="48" viewBox="0 0 24 48" fill="none" xmlns="http://www.w3.org/2000/svg">
<path d="M11.5749 25.8697C12.2457 25.4241 12.7553 24.7743 13.0281 24.0165C13.301 23.2588 13.3226 22.4334 13.0899 21.6623C12.8571 20.8913 12.3824 20.2158 11.7358 19.7356C11.0892 19.2554 10.3053 18.9961 9.4999 18.9961C8.69453 18.9961 7.91056 19.2554 7.264 19.7356C6.61745 20.2158 6.14266 20.8913 5.90991 21.6623C5.67716 22.4334 5.69882 23.2588 5.97166 24.0165C6.24451 24.7743 6.75406 25.4241 7.4249 25.8697C6.28051 26.2905 5.29245 27.0517 4.59365 28.0509C4.5481 28.1037 4.5141 28.1654 4.49381 28.2321C4.47352 28.2988 4.46741 28.369 4.47585 28.4382C4.4843 28.5074 4.50712 28.5741 4.54285 28.6339C4.57858 28.6938 4.62643 28.7455 4.68333 28.7858C4.74024 28.826 4.80493 28.854 4.87326 28.8677C4.94159 28.8815 5.01205 28.8809 5.08012 28.8658C5.14818 28.8508 5.21235 28.8217 5.26849 28.7804C5.32464 28.739 5.37153 28.6864 5.40615 28.6259C5.86819 27.9695 6.4813 27.4339 7.19378 27.0641C7.90625 26.6943 8.69719 26.5013 9.4999 26.5013C10.3026 26.5013 11.0936 26.6943 11.806 27.0641C12.5185 27.4339 13.1316 27.9695 13.5936 28.6259C13.6283 28.6864 13.6752 28.739 13.7313 28.7804C13.7875 28.8217 13.8516 28.8508 13.9197 28.8658C13.9877 28.8809 14.0582 28.8815 14.1265 28.8677C14.1949 28.854 14.2596 28.826 14.3165 28.7858C14.3734 28.7455 14.4212 28.6938 14.457 28.6339C14.4927 28.5741 14.5155 28.5074 14.5239 28.4382C14.5324 28.369 14.5263 28.2988 14.506 28.2321C14.4857 28.1654 14.4517 28.1037 14.4061 28.0509C13.7073 27.0517 12.7193 26.2905 11.5749 25.8697ZM6.7499 22.7509C6.7499 22.207 6.91119 21.6754 7.21336 21.2231C7.51553 20.7709 7.94502 20.4184 8.44752 20.2103C8.95002 20.0021 9.50295 19.9477 10.0364 20.0538C10.5698 20.1599 11.0598 20.4218 11.4444 20.8064C11.829 21.191 12.091 21.681 12.1971 22.2144C12.3032 22.7479 12.2487 23.3008 12.0406 23.8033C11.8324 24.3058 11.48 24.7353 11.0277 25.0375C10.5755 25.3397 10.0438 25.5009 9.4999 25.5009C8.77056 25.5009 8.07108 25.2112 7.55536 24.6955C7.03963 24.1798 6.7499 23.4803 6.7499 22.7509ZM19.3812 28.7447C19.328 28.783 19.2677 28.8103 19.2039 28.825C19.1401 28.8398 19.074 28.8417 19.0094 28.8306C18.9448 28.8196 18.8831 28.7958 18.8278 28.7606C18.7725 28.7255 18.7248 28.6797 18.6874 28.6259C18.225 27.9699 17.6119 27.4344 16.8995 27.0646C16.1871 26.6948 15.3963 26.5015 14.5936 26.5009C14.461 26.5009 14.3339 26.4483 14.2401 26.3545C14.1463 26.2607 14.0936 26.1336 14.0936 26.0009C14.0936 25.8683 14.1463 25.7412 14.2401 25.6474C14.3339 25.5536 14.461 25.5009 14.5936 25.5009C15.323 25.5009 16.0225 25.2112 16.5382 24.6955C17.0539 24.1798 17.3436 23.4803 17.3436 22.7509C17.3436 22.0216 17.0539 21.3221 16.5382 20.8064C16.0225 20.2907 15.323 20.0009 14.5936 20.0009C14.3425 20.0026 14.0926 20.0362 13.8499 20.1009C13.7867 20.1191 13.7205 20.1246 13.6552 20.1171C13.5899 20.1096 13.5267 20.0893 13.4692 20.0574C13.4118 20.0255 13.3611 19.9825 13.3203 19.931C13.2794 19.8795 13.2491 19.8204 13.2311 19.7572C13.1962 19.6296 13.2127 19.4934 13.2769 19.3778C13.3412 19.2621 13.4481 19.1762 13.5749 19.1384C13.9072 19.049 14.2496 19.0028 14.5936 19.0009C15.3998 18.998 16.1854 19.2555 16.8336 19.7349C17.4817 20.2144 17.9578 20.8903 18.1909 21.662C18.4241 22.4338 18.4018 23.2602 18.1276 24.0183C17.8533 24.7764 17.3416 25.4257 16.6686 25.8697C17.8138 26.2922 18.8034 27.053 19.5062 28.0509C19.5812 28.1596 19.6101 28.2936 19.5867 28.4236C19.5633 28.5536 19.4894 28.669 19.3812 28.7447Z" fill="#5B5E67"/>
</svg>
