<svg width="14" height="14" viewBox="0 0 14 14" fill="none" xmlns="http://www.w3.org/2000/svg">
<path d="M13.3333 2.99935C13.3333 4.28602 12.2867 5.33268 11 5.33268C9.71333 5.33268 8.66667 4.28602 8.66667 2.99935C8.66667 1.71268 9.71333 0.666016 11 0.666016C12.2867 0.666016 13.3333 1.71268 13.3333 2.99935ZM11 6.66602H10.6667V12.666H1.33333V3.33268H7.35333C7.33333 3.22602 7.33333 3.11268 7.33333 2.99935C7.33333 2.66602 7.38667 2.33268 7.47333 1.99935H1.33333C0.593333 1.99935 0 2.59268 0 3.33268V12.666C0 13.0196 0.140476 13.3588 0.390524 13.6088C0.640573 13.8589 0.979711 13.9993 1.33333 13.9993H10.6667C11.4067 13.9993 12 13.406 12 12.666V6.52602C11.6667 6.61268 11.3333 6.66602 11 6.66602Z" fill="#5B5E67"/>
</svg>
