<svg width="42" height="42" viewBox="0 0 42 42" fill="none" xmlns="http://www.w3.org/2000/svg">
<rect x="1" y="1" width="40" height="40" rx="4" fill="#F9FAF9"/>
<path d="M14 30C13.45 30 12.979 29.8043 12.587 29.413C12.1957 29.021 12 28.55 12 28V14C12 13.45 12.1957 12.979 12.587 12.587C12.979 12.1957 13.45 12 14 12H22C22.2833 12 22.521 12.0957 22.713 12.287C22.9043 12.479 23 12.7167 23 13C23 13.2833 22.9043 13.5207 22.713 13.712C22.521 13.904 22.2833 14 22 14H14V28H28V20C28 19.7167 28.096 19.479 28.288 19.287C28.4793 19.0957 28.7167 19 29 19C29.2833 19 29.5207 19.0957 29.712 19.287C29.904 19.479 30 19.7167 30 20V28C30 28.55 29.8043 29.021 29.413 29.413C29.021 29.8043 28.55 30 28 30H14ZM27 18C26.7167 18 26.4793 17.904 26.288 17.712C26.096 17.5207 26 17.2833 26 17V16H25C24.7167 16 24.4793 15.9043 24.288 15.713C24.096 15.521 24 15.2833 24 15C24 14.7167 24.096 14.479 24.288 14.287C24.4793 14.0957 24.7167 14 25 14H26V13C26 12.7167 26.096 12.479 26.288 12.287C26.4793 12.0957 26.7167 12 27 12C27.2833 12 27.5207 12.0957 27.712 12.287C27.904 12.479 28 12.7167 28 13V14H29C29.2833 14 29.5207 14.0957 29.712 14.287C29.904 14.479 30 14.7167 30 15C30 15.2833 29.904 15.521 29.712 15.713C29.5207 15.9043 29.2833 16 29 16H28V17C28 17.2833 27.904 17.5207 27.712 17.712C27.5207 17.904 27.2833 18 27 18ZM16 26H26C26.2 26 26.35 25.9083 26.45 25.725C26.55 25.5417 26.5333 25.3667 26.4 25.2L23.65 21.525C23.55 21.3917 23.4167 21.325 23.25 21.325C23.0833 21.325 22.95 21.3917 22.85 21.525L20.25 25L18.4 22.525C18.3 22.3917 18.1667 22.325 18 22.325C17.8333 22.325 17.7 22.3917 17.6 22.525L15.6 25.2C15.4667 25.3667 15.45 25.5417 15.55 25.725C15.65 25.9083 15.8 26 16 26ZM14 20V28V14V20Z" fill="#5B5E67"/>
<rect x="1" y="1" width="40" height="40" rx="4" stroke="#D7D3F0" stroke-dasharray="2 2"/>
</svg>
