<svg width="47" height="64" viewBox="0 0 47 64" fill="none" xmlns="http://www.w3.org/2000/svg">
<path d="M1.05825 15.8551C0.473794 12.8382 2.44565 9.91878 5.46251 9.33433C8.47937 8.74987 11.3988 10.7217 11.9833 13.7386L18.6047 47.9175C19.1892 50.9343 17.2173 53.8538 14.2005 54.4382C11.1836 55.0227 8.26417 53.0508 7.67971 50.034L1.05825 15.8551Z" fill="#A299DC"/>
<path d="M29.0645 16.1645C31.8212 16.1645 34.2647 16.603 36.3949 17.4802C38.5878 18.2947 40.436 19.4537 41.9397 20.9574C43.506 22.4611 44.6964 24.278 45.5109 26.4082C46.3254 28.5384 46.7327 30.9506 46.7327 33.6446V46.5198C46.7327 49.1512 46.3254 51.5634 45.5109 53.7562C44.6964 55.8864 43.506 57.7347 41.9397 59.301C40.436 60.8047 38.5878 61.9638 36.3949 62.7783C34.2647 63.5928 31.8212 64 29.0645 64H25.3053C22.5486 64 20.0738 63.5928 17.881 62.7783C15.7508 61.9638 13.9025 60.8047 12.3362 59.301C10.8325 57.7347 9.67343 55.8864 8.85894 53.7562C8.04445 51.5634 7.63721 49.1512 7.63721 46.5198V5.54479C7.63721 2.48249 10.1197 0 13.182 0C16.2443 0 18.7268 2.48248 18.7268 5.54479V9.91887C18.7268 13.5664 22.4097 16.1645 26.0572 16.1645H29.0645ZM25.3053 26.9721C23.3004 26.9721 21.7028 27.5986 20.5124 28.8517C19.3846 30.1047 18.7894 31.7024 18.7268 33.6446V46.1439C18.7268 48.2115 19.322 49.9031 20.5124 51.2188C21.7028 52.5345 23.3004 53.1924 25.3053 53.1924H29.0645C31.0694 53.1924 32.6984 52.5345 33.9514 51.2188C35.2045 49.9031 35.831 48.2115 35.831 46.1439V33.9266C35.831 31.859 35.2045 30.1987 33.9514 28.9457C32.6984 27.63 31.0694 26.9721 29.0645 26.9721H25.3053Z" fill="#5141BF"/>
</svg>
