<svg width="18" height="16" viewBox="0 0 18 16" fill="none" xmlns="http://www.w3.org/2000/svg">
<path d="M15.3999 6.39961V2.66628C15.3999 2.38338 15.2875 2.11207 15.0875 1.91203C14.8874 1.71199 14.6161 1.59961 14.3332 1.59961H2.59987C2.31697 1.59961 2.04566 1.71199 1.84562 1.91203C1.64558 2.11207 1.5332 2.38338 1.5332 2.66628V13.3329C1.5332 13.6158 1.64558 13.8872 1.84562 14.0872C2.04566 14.2872 2.31697 14.3996 2.59987 14.3996H14.3332C14.6161 14.3996 14.8874 14.2872 15.0875 14.0872C15.2875 13.8872 15.3999 13.6158 15.3999 13.3329V9.59961M16.3919 5.86628H11.1332C10.5674 5.86628 10.0248 6.09104 9.62471 6.49112C9.22463 6.89119 8.99987 7.43381 8.99987 7.99961C8.99987 8.5654 9.22463 9.10803 9.62471 9.5081C10.0248 9.90818 10.5674 10.1329 11.1332 10.1329H16.3919C16.4117 10.1329 16.4307 10.1251 16.4447 10.1111C16.4587 10.0971 16.4665 10.0781 16.4665 10.0583V5.94094C16.4665 5.92114 16.4587 5.90215 16.4447 5.88815C16.4307 5.87414 16.4117 5.86628 16.3919 5.86628Z" stroke="#5B5E67" stroke-width="1.6"/>
</svg>
